<svg width="82" height="153" fill="none" xmlns="http://www.w3.org/2000/svg"><path fill-rule="evenodd" clip-rule="evenodd" d="M10.97 121.004c-2.602-2.406-6.01-8.408-6.382-21.79-.46-16.514-.192-37.846 0-46.447.382-4.396 3.44-12.156 12.614-8.028 3.059-2.676 10.322-6.422 14.91 0 1.72-2.484 6.307-6.307 10.894-1.72V19.51c0-2.103 2.409-6.881 7.455-6.881 5.734 0 6.88 2.867 7.454 5.16V71.69l9.748-20.643c1.72-3.44 14.336-4.014 13.762 6.308l-27.673 63.649h7.25a6.66 6.66 0 016.661 6.661v17.643a6.661 6.661 0 01-6.66 6.661H6.66A6.661 6.661 0 010 145.308v-17.643a6.66 6.66 0 016.66-6.661h4.31zm-4.31 2.664h54.343a3.996 3.996 0 013.996 3.997v17.643a3.996 3.996 0 01-3.996 3.996H6.66a3.996 3.996 0 01-3.997-3.996v-17.643a3.996 3.996 0 013.997-3.997z" fill="#F4C58D"/><path d="M35.622 10.718c3.324-7.86 20.469-14.871 32.088 0" stroke="#FF7478" stroke-width="3"/><rect y="120.529" width="67.938" height="31.971" rx="4" fill="#76BF9D"/><path d="M45.292 22.619c1.998 1.776 6.794 4.262 9.99 0" stroke="#CEA679"/><path d="M32.01 72.208V44.637c-1.316-2.019-3.664-3.272-5.406-3.404l.077 30.975h5.329zm-14.803 1.854V44.731c-1.553-.995-2.528-.94-4.304-1.201v30.532h4.304zm25.779-1.476v-29.54c-1.202-1.593-2.579-1.91-4.355-2.17v31.71h4.355z" fill="#CEA679"/></svg>