<svg width="121" height="134" fill="none" xmlns="http://www.w3.org/2000/svg"><path d="M18.082 117.551l1.11-14.417h14.443v6.654l-15.552 7.763z" fill="#ED6064"/><path d="M23.654 75.964c14.417-14.416 22.338-21.97 28.806-21.6l12.2 16.08-2.746 18.828-7.236 18.323-1.663 5.545c-.555 1.663-1.663 1.663-5.545 1.663-3.105 0-3.142-5.914-2.772-8.872v-1.663c-.555-1.109-1.553-2.551-1.11.555.444 3.105-1.821 6.259-2.745 7.183-2.662 2.218-5.36.924-7.209 0-2.217-.887-.95-6.469-1.135-8.317L20.3 100.941c-1.293.739-4.325 2.44-6.099 3.327-2.218 1.109-4.408 0-6.072-3.327-1.663-3.327-2.639-6.814 15.525-24.977z" fill="#CEA679"/><path d="M67.431 57.112L58.56 69.865c.37 0 1.441 2.107 2.772 10.535 1.33 8.428-5.36 10.166-8.872 9.98l-28.278-.554c-5.323 1.775-5.545 6.654-5.545 8.872-.555 7.208 3.327 7.393 5.545 7.208h27.724c3.992 6.654 11.274 8.318 14.417 8.318l29.942-2.773-2.218-47.13-26.615-7.21z" fill="#F4C58D"/><rect x="89.272" y="57.882" width="28.833" height="57.666" rx="5" transform="rotate(-2.914 89.272 57.882)" fill="#76BF9D"/><path d="M92.938 0L26.426 89.826l18.298.555 59.303-82.618L92.937 0z" fill="#ED6064"/><path d="M29.123 124.962c-5.415 4.601-20.787 3.395-23.859-12.013" stroke="#FF7478" stroke-width="3"/></svg>