<svg width="143" height="142" fill="none" xmlns="http://www.w3.org/2000/svg"><path d="M71.136 141.312c39.205 0 70.986-31.479 70.986-70.312S110.341.687 71.136.687C31.931.688.15 32.168.15 71s31.781 70.312 70.986 70.312z" fill="#F2F2F2"/><path d="M112.545 92.094a4.758 4.758 0 01-3.347-1.373 4.667 4.667 0 01-1.386-3.315V35.844a15.182 15.182 0 00-4.933-9.9 15.462 15.462 0 00-10.388-4 15.463 15.463 0 00-10.388 4 15.18 15.18 0 00-4.933 9.9l7.099 56.25c0 3.73 1.495 7.306 4.158 9.944a14.267 14.267 0 0010.039 4.118c3.765 0 7.376-1.481 10.039-4.118a13.999 13.999 0 004.158-9.944h-.118z" fill="#D84A46"/><path d="M84.15 49.906c6.534 0 11.831-5.246 11.831-11.718 0-6.473-5.297-11.72-11.83-11.72-6.535 0-11.832 5.247-11.832 11.72 0 6.472 5.297 11.718 11.831 11.718z" fill="#F85565"/><path d="M69.953 28.813c9.228 0 18.078 3.63 24.604 10.094 6.525 6.463 10.191 15.23 10.191 24.37v7.172c0 3.4-1.364 6.661-3.791 9.066a13.006 13.006 0 01-9.152 3.754H48.1c-3.433 0-6.725-1.35-9.152-3.755a12.759 12.759 0 01-3.791-9.065v-7.172c0-9.14 3.666-17.907 10.191-24.37 6.525-6.463 15.376-10.094 24.604-10.094z" fill="#D84A46"/><path d="M71.136 141.312a71.025 71.025 0 0039.042-11.624l-3.147-8.719a11.721 11.721 0 00-4.288-5.614 11.898 11.898 0 00-6.762-2.167H43.984a11.905 11.905 0 00-6.818 2.14 11.729 11.729 0 00-4.327 5.641l-2.686 7.453a71.143 71.143 0 0040.983 12.89z" fill="#76BF9D"/><path d="M93.52 113.188H46.386a23.356 23.356 0 007.6 15.203 23.793 23.793 0 0015.967 6.14 23.79 23.79 0 0015.966-6.14 23.356 23.356 0 007.601-15.203z" fill="#4FB293"/><path d="M80.6 114.652c0 2.798-1.121 5.48-3.118 7.458a10.7 10.7 0 01-7.53 3.089 10.7 10.7 0 01-7.528-3.089 10.496 10.496 0 01-3.12-7.458c0-5.859 4.733-3.515 10.649-3.515 5.915 0 10.648-2.309 10.648 3.515z" fill="#ED5757"/><path d="M69.953 98.832v16.113" stroke="#E0B687" stroke-width="12" stroke-linecap="round" stroke-linejoin="round"/><path d="M69.953 111.828a27.347 27.347 0 01-19.242-7.894 26.825 26.825 0 01-7.97-19.059V67.203a26.824 26.824 0 017.97-19.059 27.344 27.344 0 0119.242-7.894c7.217 0 14.138 2.84 19.241 7.894a26.824 26.824 0 017.97 19.06V84.91a26.824 26.824 0 01-7.982 19.036 27.345 27.345 0 01-19.23 7.882z" fill="#F4C58D"/><path opacity=".1" d="M48.444 55.766a23.358 23.358 0 018.232-10.33 23.691 23.691 0 0112.567-4.272" stroke="#fff" stroke-width="3.68" stroke-miterlimit="10" stroke-linecap="round"/><path d="M100.501 64.93a30.021 30.021 0 00-2.406-11.78 30.25 30.25 0 00-6.845-9.924 30.583 30.583 0 00-10.205-6.501 30.811 30.811 0 00-11.956-2.053c-16.634.457-29.684 14.39-29.684 30.879v4.687a5.615 5.615 0 00.449 2.235 5.66 5.66 0 001.302 1.879c.477.464 1.02.859 1.61 1.171V71c0-1.243.498-2.436 1.385-3.315a4.756 4.756 0 013.347-1.373h6.365a1.191 1.191 0 001.065-.644l2.01-4.043 2.036 4.043a1.177 1.177 0 001.065.644h32.393c1.255 0 2.459.494 3.346 1.373A4.665 4.665 0 0197.164 71v4.558a7.012 7.012 0 001.61-1.171 5.651 5.651 0 001.75-4.114l-.023-5.343z" fill="#ED6064"/><path d="M79.027 84.219c0-.933.374-1.827 1.04-2.486a3.567 3.567 0 012.51-1.03c.94 0 1.844.37 2.51 1.03a3.499 3.499 0 011.039 2.486m-25.638 0c0-.933-.374-1.827-1.04-2.486a3.567 3.567 0 00-2.51-1.03c-.94 0-1.843.37-2.509 1.03a3.499 3.499 0 00-1.04 2.486" stroke="#515570" stroke-width="2" stroke-linecap="round" stroke-linejoin="round"/><path d="M78.885 96.781a1.193 1.193 0 01.821.397 1.168 1.168 0 01.291.857 10 10 0 01-3.331 6.315 10.184 10.184 0 01-6.725 2.531c-2.479 0-4.871-.901-6.725-2.531a10 10 0 01-3.331-6.315 1.161 1.161 0 01.3-.865 1.182 1.182 0 01.835-.389h17.865z" fill="#393C54"/><path d="M64.037 104.879A10.142 10.142 0 0070 106.813c2.145 0 4.234-.677 5.963-1.934-1.278-2.051-3.443-2.238-6.01-2.238-2.568 0-4.733.187-5.916 2.238z" fill="#F85565"/><path d="M75.868 99.125h-11.83a2.193 2.193 0 01-1.525-.742 2.153 2.153 0 01-.522-1.602h15.972a2.136 2.136 0 01-.539 1.618 2.174 2.174 0 01-1.556.726z" fill="#fff"/></svg>