<svg width="152" height="150" fill="none" xmlns="http://www.w3.org/2000/svg"><ellipse cx="76.083" cy="75" rx="75.719" ry="75" fill="#F2F2F2"/><mask id="a" maskUnits="userSpaceOnUse" x="0" y="0" width="152" height="150"><ellipse cx="76.083" cy="75" rx="75.719" ry="75" fill="#E2E1CF"/></mask><g mask="url(#a)"><path d="M102.729 64.619c-1.825-9.967 15.623-36.264 22.658-48.058l2.281-11.96L73.479-.881v151l61.605-1.495-4.568-19.005c.38-.997-.561-20.344-8.775-33.5-10.267-16.446-16.73-19.041-19.012-31.5z" fill="#E0B687"/><mask id="b" maskUnits="userSpaceOnUse" x="73" y="0" width="64" height="152"><path d="M103.41 66.332c-1.868-9.967 15.987-36.264 23.186-48.058l2.334-11.96L73.479.831v151l63.04-1.495-4.675-19.005c.39-.997-.573-20.344-8.979-33.5-10.506-16.446-17.12-19.042-19.455-31.5z" fill="#2A231B"/></mask><g mask="url(#b)"><path d="M73.428 101.08l50.489-7.24 11.323 25.654-11.746 18.931-25.206 10.583-24.86 2.324V101.08z" fill="#F49A20"/></g><path d="M44.78 62.906c1.79-10.118-15.338-36.813-22.244-48.786l-2.24-12.142 53.196-5.564V149.7l-60.475-1.518 4.484-19.292c-.374-1.012.55-20.652 8.614-34.008 10.079-16.695 16.423-19.33 18.663-31.977z" fill="#F4C58D"/><mask id="c" maskUnits="userSpaceOnUse" x="12" y="-4" width="62" height="155"><path d="M44.604 63.489c1.805-10.118-15.444-36.813-22.4-48.786L19.95 2.561l53.57-5.564v153.287l-60.902-1.518 4.516-19.292c-.376-1.012.555-20.652 8.675-34.008 10.15-16.695 16.54-19.33 18.795-31.977z" fill="#2A231B"/></mask><g mask="url(#c)"><path d="M73.52 100.088L25.89 92.75l-11.174 26.031 11.175 19.217 23.979 10.744 23.65 2.359v-51.013z" fill="#FCBE43"/></g><path fill-rule="evenodd" clip-rule="evenodd" d="M35.224 99.71c11.181 3.469 25.33 5.335 39.858 5.289v-7.474c-9.762.046-19.279-1.201-26.79-3.531-8.17-2.534-13.665-6.304-14.681-10.22-2.198 2.743-6.514 8.835-8.358 11.992 2.867 1.447 6.19 2.771 9.97 3.944z" fill="#ED5757"/><path d="M77.46 104.935c15.436-.445 29.796-3.177 39.998-7.608 1.429-.62 2.606-1.29 3.837-1.961 0 0-2.83-4.846-8.92-12.476.58 3.928-2.875 6.553-9.688 9.512-6.813 2.96-16.404 4.784-26.712 5.081-.831.024-1.661.038-2.49.042V105c1.323-.004 2.648-.025 3.975-.064z" fill="#DA3B3B"/></g></svg>