<svg width="152" height="150" fill="none" xmlns="http://www.w3.org/2000/svg"><ellipse cx="75.772" cy="75" rx="75.719" ry="75" fill="#F2F2F2"/><mask id="a" maskUnits="userSpaceOnUse" x="0" y="0" width="152" height="150"><ellipse cx="75.772" cy="75" rx="75.719" ry="75" fill="#E0DBE9"/></mask><g mask="url(#a)"><path d="M33.228 111.649c6.058 16 62.594 23 83.291 6 2.187-1.167 8.379-1.4 15.648 7 4.798 5.544 10.3-5.889 14.502-19-8.993-6.8-37.033-1.789-39.741 0-16.659 11-57.547 10.5-73.7 6z" fill="#E0B687"/><path d="M151.854 86.148c-7.404-5.833-27.158-12.6-46.946 7-11.105-14.5-28.773-14-37.86 0-3.533-26-2.523-16-3.533-24.5-1.01-8.5-1.514-28.5-1.01-29.5.506-1 5.049-4 17.164 2 12.115 6 18.677-5 18.172-8-.504-3-1.514-14.5-11.61-16-8.077-1.2-24.903 5.167-32.306 8.5-8.918 23.334-25.543 73.2-20.697 86.001 16.153 4.5 57.041 5 73.7-6 2.708-1.789 30.748-6.8 39.741 0 2.164-6.752 3.984-13.949 5.185-19.5z" fill="#E0B687"/><path d="M33.228 111.649c6.058 16 62.594 23 83.291 6 2.187-1.167 3.473 7.451 10.742 15.851 4.798 5.545 15.206-14.74 19.408-27.851-8.993-6.8-37.033-1.789-39.741 0-16.659 11-57.547 10.5-73.7 6zm30.48-74.242c2.57-4.685 9.8-12.983 18.626-9.407 8.885 3.6 13.125 6.5 14.135 7.5-1.178 2.166-4.745 6.5-9.591 6.5-6.058 0-15.649-6.5-17.668-6-1.485-.163-4.618-.103-5.502 1.407z" fill="#ED5757"/></g></svg>