<svg width="153" height="150" fill="none" xmlns="http://www.w3.org/2000/svg"><ellipse cx="76.425" cy="75" rx="75.719" ry="75" fill="#F2F2F2"/><mask id="a" maskUnits="userSpaceOnUse" x="0" y="0" width="153" height="150"><ellipse cx="76.425" cy="75" rx="75.719" ry="75" fill="#E0DBE9"/></mask><g mask="url(#a)"><path d="M48.54 47.24C32.4 29.313 49.968 19.985 60.77 17.563l34.24-.605 3.057 16.958-45.246 16.352c5.299 6.46 11.862 14.898-4.28-3.029z" fill="#ED6064"/><path d="M57.584 116.796c-41.677-15.769-28.806-44.17-17.16-56.398l72.933-30.116c.205 7.118 0 23.752 0 33.4 0 1.727-1.642 9.774 1.831 11.417 12.202 10.188 9.933 38.452 3.073 42.245-2.462 1.36-5.519 3.783-6.129 8.213v24.641H57.584v-33.402z" fill="#D84A46"/><path d="M71.378 9c.102-.474 1.213-8.577 1.01-11l25.068 2c2.446 3.836 5.259 13.082-3.057 19.38-8.315 6.299-26.7 1.817-34.852-1.21 2.446-1.212 9.996-.691 11.83-9.17z" fill="#E0B687"/><path d="M89.786 29.06L95.455 0h23.935c.21 8.956.126 28.951-1.89 37.285-2.015 8.335-8.717 13.886-12.706 14.8l-66.026 8.23c-2.52.548-7.936.548-9.448-3.839-1.512-4.386 2.31-6.945 4.41-7.676l56.056-19.74z" fill="#F4C58D"/></g></svg>