<svg width="152" height="150" fill="none" xmlns="http://www.w3.org/2000/svg"><ellipse cx="76.188" cy="75" rx="75.719" ry="75" fill="#F2F2F2"/><path d="M19.123 73.143c0-6.114 7.073-7.643 10.61-7.643H39.86v15.468s-6.591-.182-10.128-.182c-3.536 0-10.61-1.529-10.61-7.643z" fill="#4FB293" stroke="#4FB293"/><path d="M95.243 28.898c-16.57 4.189-21.515 18.565-20.712 25.23h7.707c1.156-12.948 9.152-16.185 13.006-16.185 3.21-.318 6.743 0 7.225-2.857.708-4.2-3.854-7.04-7.225-6.188z" fill="#4FB293"/><path d="M70.084 19.43c11.959 4.537 10.804 16.155 8.731 21.397-11.427-7.633-33.762-22.58-36.421-24.462 4.247-.869 15.732-1.472 27.69 3.065z" fill="#76BF9D"/><path d="M55.708 40.611c8.75 9.246 19.21 3.82 23.346-.049-11.453-7.594-33.865-22.43-36.63-24.157.783 4.216 4.535 14.96 13.284 24.206z" fill="#4FB293"/><path d="M83.683 53.725h-5.298v70.452c18.496 14.852 37.571-6.188 44.796-18.565 3.693-11.266 7.611-37.035-6.262-49.983-13.872-12.948-27.937-6.665-33.236-1.904z" fill="#D84A46"/><path d="M73.2 53.725h5.3v70.452c-18.496 14.852-37.571-6.188-44.796-18.565-3.693-11.266-7.611-37.035 6.261-49.983 13.873-12.948 27.938-6.665 33.237-1.904z" fill="#ED6064"/><path d="M82.3 103.491V80.563H29.251c-3.537 0-10.61-1.529-10.61-7.643v22.928c0 6.115 7.073 7.643 10.61 7.643h53.047z" fill="#76BF9D"/><path d="M82.3 103.491V80.563c-2.894.587-8.681 3.703-8.681 11.464 0 7.76 5.787 10.876 8.68 11.464z" fill="#4FB293"/><path d="M57.222 80.563h4.823v4.687a2 2 0 01-2 2h-.823a2 2 0 01-2-2v-4.688zm-9.645 0H52.4v4.687a2 2 0 01-2 2h-.823a2 2 0 01-2-2v-4.688zm-9.645 0h4.823v4.687a2 2 0 01-2 2h-.823a2 2 0 01-2-2v-4.688z" fill="#E2E1CF"/></svg>