<svg width="25" height="25" fill="none" xmlns="http://www.w3.org/2000/svg"><path d="M21.092 12.5c0 1.24.003 2.48 0 3.724-.007 1.8-.845 3.134-2.342 4.076-.876.547-1.85.79-2.882.79-2.258 0-4.513.01-6.771-.003-1.57-.01-2.92-.565-3.99-1.729a4.444 4.444 0 01-1.171-2.55 5.305 5.305 0 01-.028-.62c0-2.469-.004-4.938 0-7.408.01-1.805.848-3.138 2.345-4.08.883-.551 1.86-.79 2.899-.79 2.252 0 4.503-.01 6.755.003 1.576.01 2.93.568 4 1.74a4.43 4.43 0 011.157 2.535c.045.38.024.762.028 1.14.003 1.06 0 2.116 0 3.172zm-15.9 0c0 1.271-.003 2.539 0 3.81.004.873.323 1.625.919 2.248.8.835 1.798 1.24 2.944 1.247 2.276.014 4.548.003 6.824.003.734 0 1.434-.159 2.071-.526 1.192-.682 1.864-1.687 1.864-3.093v-7.5c0-.865-.316-1.613-.908-2.233-.793-.838-1.794-1.25-2.937-1.258-2.3-.017-4.597-.006-6.897-.006-.717 0-1.396.17-2.019.523-1.188.685-1.864 1.69-1.86 3.096V12.5z" fill="#fff"/><path d="M12.512 16.172a4.006 4.006 0 01-4.028-4.018c.003-2.172 1.822-3.952 4.042-3.949 2.23 0 4.032 1.791 4.029 4.001-.004 2.19-1.816 3.966-4.043 3.966zm0-1.282c1.52 0 2.76-1.208 2.76-2.694 0-1.493-1.229-2.709-2.746-2.709-1.52 0-2.76 1.209-2.76 2.695 0 1.493 1.229 2.708 2.746 2.708zm3.662-7.01c0-.492.377-.887.848-.887.472 0 .85.398.85.887 0 .481-.378.876-.843.88-.47.003-.855-.389-.855-.88z" fill="#fff"/></svg>