<svg width="110" height="95" fill="none" xmlns="http://www.w3.org/2000/svg"><path d="M50.977 92.402c-6.388-4.005-6.388-13.165-6.388-16.377 0-2.576 1.33-3.016 1.994-2.914 2.7-.613 3.374-2.096 3.374-2.76V39.217c-.981-5.398-6.032-7.361-8.435-7.668-2.331-.491-3.323 1.431-3.527 2.454v38.341c-1.105 6.749-6.424 7.157-8.827 6.441v.002c-9.413-7.132-18.76-16.869-24.991-31.393C.632 39.132-4.32 23.009 7.09 10.739 18.501-1.53 29.33-.475 33.776.617c5.624 1.38 17.571 8.462 21.13 25.762v68.402a106.395 106.395 0 00-3.93-2.379z" fill="#F3AA34"/><path d="M54.906 94.781V26.383C58.464 9.083 70.6 1.997 76.224.617 80.67-.475 91.499-1.53 102.91 10.739c11.41 12.27 6.458 28.393 2.913 36.655-6.244 14.555-15.665 24.302-25.145 31.439-2.343.698-8.235.16-9.533-6.12a15.205 15.205 0 01-.08-.423 3.147 3.147 0 01-.008-.168l.16-13.336v-.025c0-.48.463-.877 1.064-.938l.08-.006a1.468 1.468 0 01.083-.002v-.005c4.037-.35 4.294-2.404 4.294-2.404V33.322h-.008c-.084-.86-.873-1.534-1.833-1.534s-1.748.674-1.832 1.534h-.008v16.87c0 .678-.618 1.227-1.38 1.227-.763 0-1.38-.55-1.38-1.227v-16.87h-.008c-.085-.86-.873-1.534-1.833-1.534s-1.748.674-1.833 1.534h-.007v16.87c0 .678-.618 1.227-1.38 1.227-.763 0-1.381-.55-1.381-1.227v-16.87h-.007c-.085-.86-.873-1.534-1.833-1.534s-1.749.674-1.833 1.534h-.008l.008 22.084s.25 2.055 4.287 2.404v.005a1.72 1.72 0 01.162.008c.6.061 1.064.458 1.064.938v18.558c-.009 3.264-.58 11.162-6.93 15.126-1.38.801-2.673 1.575-3.86 2.336z" fill="#F3AA34"/></svg>