<svg width="162" height="147" fill="none" xmlns="http://www.w3.org/2000/svg"><path d="M71.434 74.128c-.968.113 3.812-20.37 4.78-22.247l-.627-.342c4.723-1.327 14.406-4.108 15.362-4.608.956-.501 3.206 6.201 4.21 9.615-7.585 5.823-22.951 17.49-23.725 17.582z" fill="#E0B687"/><path d="M105.578 53.267c-.878.185-2.11.013-3.151-.66-1.004-.649-1.845-1.771-1.991-3.561l-1.964.16c.197 2.414 1.38 4.082 2.885 5.055 1.467.949 3.227 1.228 4.626.934l-.405-1.928z" fill="#FF7478"/><path d="M106.256 58.833l5.222-1.543 2.08-2.108.051-.052.046-.058c1.517-1.928 3.541-6.956.058-12.14-1.832-2.726-4.567-3.677-7.09-3.793-2.487-.113-4.878.57-6.351 1.24l-.215.097-11.055 11.007.847 2.864 11.72-11.67c1.198-.507 3.062-.999 4.934-.913 1.948.089 3.789.787 5.029 2.633 2.627 3.91 1.142 7.627.1 8.997a2752.34 2752.34 0 01-5.376 5.439z" fill="#FF7478"/><path fill-rule="evenodd" clip-rule="evenodd" d="M143.958 2.79L83.963 20.512a3.94 3.94 0 00-2.663 4.895l7.703 26.076 11.054-11.007.215-.098c1.473-.67 3.864-1.352 6.351-1.239 2.523.116 5.258 1.067 7.09 3.793 3.483 5.184 1.459 10.212-.058 12.14l-.046.058-.051.052-2.08 2.108 44.68-13.198a3.941 3.941 0 002.663-4.895l-9.968-33.744a3.94 3.94 0 00-4.895-2.663zm-6.749 12.459c4.221 2.943 11.549 11.746 7.393 23.438l2.475.88c4.715-13.263-3.637-23.177-8.365-26.473l-1.503 2.155zm1.197 20.823c2.907-8.436-2.218-14.784-5.153-16.894l1.534-2.133c3.458 2.487 9.532 9.93 6.103 19.883l-2.484-.856zm-7.755-10.31c1.67 1.144 4.495 4.525 2.884 8.978l2.47.893c2.191-6.055-1.704-10.554-3.869-12.038l-1.485 2.168z" fill="#FF7478"/><path d="M133.535 34.74c1.611-4.453-1.214-7.834-2.884-8.977l1.485-2.168c2.165 1.484 6.06 5.983 3.869 12.038l-2.47-.893z" fill="#D84A46"/><path d="M133.253 19.178c2.935 2.11 8.06 8.458 5.153 16.894l2.484.856c3.429-9.953-2.645-17.396-6.103-19.882l-1.534 2.132z" fill="#D84A46"/><path d="M144.602 38.687c4.156-11.692-3.172-20.495-7.393-23.438l1.503-2.155c4.728 3.296 13.08 13.21 8.365 26.473l-2.475-.88z" fill="#D84A46"/><path d="M105.578 53.267c-.878.185-2.11.013-3.151-.66-1.004-.649-1.845-1.771-1.991-3.561l-1.964.16c.197 2.414 1.38 4.082 2.885 5.055 1.467.949 3.227 1.228 4.626.934l-.405-1.928z" fill="#F4C58D"/><path fill-rule="evenodd" clip-rule="evenodd" d="M96.163 61.814l10.093-2.981a2752.34 2752.34 0 005.376-5.439c1.042-1.37 2.527-5.087-.1-8.996-1.24-1.847-3.081-2.545-5.029-2.634-1.872-.086-3.736.406-4.934.913l-11.72 11.67 1.419 4.804a3.94 3.94 0 004.895 2.663zm9.415-8.547c-.878.185-2.11.013-3.151-.66-1.004-.649-1.845-1.771-1.991-3.561l-1.964.16c.197 2.414 1.38 4.082 2.885 5.055 1.467.949 3.227 1.228 4.626.934l-.405-1.928z" fill="#F4C58D"/><path d="M89.849 54.347l-2.117 2.108 1.017 3.44a6.567 6.567 0 008.158 4.438l5.498-1.624c1.299-1.304 2.6-2.614 3.851-3.876l-10.093 2.981a3.94 3.94 0 01-4.895-2.663l-1.42-4.804z" fill="#F4C58D"/><path d="M88.588 50.08l-4.406-14.917c-9.705 2.845-32.592 10.23-37.615 11.999-.377.132-.837.504-1.327 1.352-.485.838-.92 2.006-1.307 3.48-.773 2.948-1.284 6.84-1.742 11.114-.144 1.34-.282 2.717-.422 4.108-.302 3.003-.61 6.07-.99 8.956-.557 4.218-1.285 8.2-2.435 11.212-1.848 4.84-5.202 8.654-8.038 11.233a39.117 39.117 0 01-4.123 3.273l19.83 19.505c3.844-2.427 10.049-6.583 15.873-10.851 5.895-4.32 11.235-8.638 13.441-11.38 2.83-3.518 6.047-9.197 8.796-14.236.459-.84.905-1.663 1.333-2.453v-.002c.841-1.552 1.612-2.975 2.272-4.147.5-.886.95-1.655 1.331-2.245.191-.295.376-.562.55-.785.156-.2.372-.452.63-.636l.074-.06c.049-.04.112-.096.192-.166.158-.14.363-.329.612-.563.498-.467 1.154-1.099 1.934-1.859a727.965 727.965 0 005.795-5.737 1685.39 1685.39 0 003.559-3.566l-5.498 1.624a6.567 6.567 0 01-8.158-4.437l-1.017-3.441-13.175 13.118 2.666-6.362s.23-.88.473-2.134c.057-.313.109-.629.154-.946.318-2.22.358-4.632-.211-6.886l10.95-3.165z" fill="#F4C58D"/><path d="M105.578 53.267c-.878.185-2.11.013-3.151-.66-1.004-.649-1.845-1.771-1.991-3.561l-1.964.16c.197 2.414 1.38 4.082 2.885 5.055 1.467.949 3.227 1.228 4.626.934l-.405-1.928zm.678 5.566c-2.277 2.296-3.464 3.498-5.71 5.741l-2.385 2.385c.58 1.94-.117 7.805 2.689 9.501 1.679 1.015 5.177.789 6.412-.676.242-.738.323-.684.49-1.327l.003-.112 3.723-17.055-5.222 1.543z" fill="#E0B687"/><path d="M91.117 73.871c-.216.203-1.769.987-1.917 1.12l-.417 4.115c-.504 2.099-1.96 6.777.276 9.948.136.191 1.974 1.018 2.354 1.197.358.17 1.957.129 2.24.059.59-.146 1.194-.672 1.608-1.256l3.46-20.836c.303-.303-.346-.298-.539-1.28a797.076 797.076 0 01-5.131 5.074c-.78.76-1.436 1.392-1.934 1.859z" fill="#E0B687"/><rect x="11.052" y="106.569" width="25.135" height="44.482" rx="4" transform="rotate(-43.976 11.052 106.569)" fill="#76BF9D"/></svg>