<svg width="25" height="25" fill="none" xmlns="http://www.w3.org/2000/svg"><path fill-rule="evenodd" clip-rule="evenodd" d="M21.093 13.74l-.001-1.24v-1.056c.001-.705.002-1.41 0-2.117v-.305a6.616 6.616 0 00-.028-.834 4.43 4.43 0 00-1.157-2.536c-1.07-1.17-2.424-1.728-4-1.739-1.576-.01-3.153-.007-4.729-.005l-2.026.002c-1.04 0-2.016.239-2.9.79-1.496.942-2.334 2.275-2.344 4.08-.003 1.646-.002 3.293-.001 4.94v2.469c0 .208.004.412.029.62a4.45 4.45 0 001.17 2.55c1.07 1.163 2.421 1.717 3.99 1.727 1.581.01 3.16.008 4.74.006a1376.1 1376.1 0 012.032-.002c1.033 0 2.006-.242 2.882-.79 1.497-.942 2.335-2.275 2.342-4.076.002-.83.001-1.657 0-2.484zm-15.9.03V8.812c-.004-1.406.672-2.41 1.86-3.096a4.038 4.038 0 012.02-.523l1.88-.002c1.673-.002 3.343-.004 5.016.008 1.143.007 2.144.42 2.937 1.258.593.62.908 1.368.908 2.234v7.499c0 1.406-.672 2.41-1.864 3.093-.637.367-1.337.526-2.071.526l-2.048.002c-1.592.003-3.183.005-4.776-.005-1.146-.007-2.144-.412-2.944-1.247-.596-.623-.915-1.375-.918-2.248-.002-.847-.002-1.693 0-2.54zm6.982-4.394c-.574-.006-1.068.011-1.343.146-.183.09-.33.282-.244.293.106.014.36.071.488.245.165.224.147.732.147.732s.096 1.39-.22 1.562c-.216.118-.51-.142-1.147-1.245-.328-.565-.562-1.172-.562-1.172s-.061-.132-.146-.195a.637.637 0 00-.245-.098L7.39 9.67s-.234-.003-.318.098c-.075.089-.024.268-.024.268s1.209 2.813 2.563 4.224c1.244 1.292 2.662 1.196 2.662 1.196h.634s.195-.016.293-.122c.09-.098.074-.293.074-.293s-.007-.85.39-.977c.238-.075.52.246.825.592.198.225.405.46.616.605.403.277.708.22.708.22l1.416-.025s.744-.047.39-.635a.5.5 0 01-.01-.018c-.05-.094-.254-.473-1.04-1.202-.378-.352-.577-.533-.599-.734-.03-.274.27-.585.892-1.415.657-.876.937-1.407.855-1.636-.078-.218-.562-.146-.562-.146h-1.611s-.131-.004-.22.049c-.086.051-.146.17-.146.17s-.247.67-.586 1.246c-.716 1.215-1.006 1.271-1.123 1.196-.225-.145-.212-.524-.2-.864a6.25 6.25 0 00.005-.21c0-.277.01-.517.019-.723.028-.67.042-.986-.361-1.084-.175-.042-.31-.068-.757-.073z" fill="#fff"/></svg>