<svg width="25" height="25" fill="none" xmlns="http://www.w3.org/2000/svg"><path d="M21.094 12.185c-.004 1.501-.332 2.825-.996 4.056a8.31 8.31 0 01-2.575 2.89 8.355 8.355 0 01-3.141 1.362 8.658 8.658 0 01-3.784-.066 7.85 7.85 0 01-1.898-.724.344.344 0 00-.297-.024c-1.317.42-2.634.835-3.952 1.251-.15.049-.297.093-.447.149-.105.038-.112 0-.084-.087.154-.447.304-.894.458-1.345.328-.973.657-1.947.992-2.918.046-.128-.02-.211-.073-.301a8.043 8.043 0 01-.888-2.264 8.21 8.21 0 01.41-5.036 8.224 8.224 0 011.635-2.537A8.433 8.433 0 019.63 4.46a8.342 8.342 0 013.54-.537c1.666.1 3.182.648 4.513 1.646 1.723 1.29 2.806 2.984 3.24 5.088.115.537.157 1.081.17 1.528zm-8.508-6.859a6.086 6.086 0 00-1.53.17C8.783 6.068 7.151 7.413 6.19 9.53c-.555 1.224-.705 2.517-.496 3.84a6.784 6.784 0 001.167 2.88.289.289 0 01.039.289c-.259.752-.51 1.507-.765 2.263-.014.041-.056.09-.018.128.039.042.087-.003.13-.017.765-.243 1.53-.482 2.288-.735.175-.059.3-.031.45.059 1.716 1.022 3.55 1.293 5.483.783 1.468-.384 2.676-1.178 3.634-2.35a6.774 6.774 0 001.548-3.878 6.788 6.788 0 00-.542-3.227 6.93 6.93 0 00-2.624-3.112 6.81 6.81 0 00-3.9-1.127z" fill="#fff"/><path d="M8.414 10.276c.014-.78.321-1.421.922-1.92a.728.728 0 01.605-.163c.098.013.199.027.293.017.238-.017.374.114.447.308.224.583.44 1.168.66 1.75a.37.37 0 01-.02.316c-.136.28-.353.5-.57.718-.188.19-.199.253-.07.485.626 1.123 1.489 1.996 2.684 2.526.06.025.112.066.168.09.15.073.286.066.412-.062a10.5 10.5 0 00.692-.78c.17-.211.251-.242.492-.135.587.27 1.147.586 1.716.89.189.101.21.24.182.493-.116 1.03-.909 1.497-1.814 1.646a1.87 1.87 0 01-.877-.069c-.838-.263-1.663-.568-2.404-1.047a7.867 7.867 0 01-1.806-1.64 11.903 11.903 0 01-1.331-1.985c-.21-.406-.381-1.036-.381-1.438z" fill="#fff"/></svg>